<?xml version="1.0" encoding="utf-8"?>
<!-- Generator: Adobe Illustrator 16.0.0, SVG Export Plug-In . SVG Version: 6.00 Build 0)  -->
<!DOCTYPE svg PUBLIC "-//W3C//DTD SVG 1.1//EN" "http://www.w3.org/Graphics/SVG/1.1/DTD/svg11.dtd">
<svg version="1.1" id="Layer_1" xmlns="http://www.w3.org/2000/svg" xmlns:xlink="http://www.w3.org/1999/xlink" x="0px" y="0px"
viewBox="0 0 29 29" xml:space="preserve">
<path fill="#968900" transform="translate(1, 0.5)" d="M9.838,11.812c0,0-1.345-0.067-1.439-0.989c-0.097-0.92,0.873-1.879,2.59-1.97
	c1.718-0.093,3.662-0.144,4.078-0.292c0.545-0.195,1.248-0.815,1.144-1.829c-0.099-1.013-1.574-2.114-3.206-2.349
	c-1.156-0.166-5.779-1.311-10.244,6.269c-1.16,1.974-1.744,1.737-2.176,1.612c-0.11-0.031-0.861-0.382-0.476-1.744
	c0.384-1.365,1.62-5.186,5.555-8.014c3.936-2.831,8.81-3.121,13.171-1.581c4.359,1.542,7.035,5.144,6.989,7.458
	c-0.036,1.848-1.236,3.355-5.486,3.387C15.942,11.8,9.838,11.812,9.838,11.812z"/>
<path transform="translate(1, 0.5)" d="M17.259,16.237c0,0,1.344,0.068,1.439,0.988c0.095,0.918-0.872,1.881-2.588,1.971s-3.665,0.145-4.079,0.291
	c-0.543,0.197-1.247,0.816-1.146,1.828c0.101,1.016,1.572,2.115,3.207,2.35c1.157,0.166,5.777,1.312,10.241-6.27
	c1.165-1.971,1.749-1.734,2.177-1.611c0.113,0.035,0.864,0.383,0.48,1.746c-0.387,1.365-1.623,5.184-5.558,8.016
	c-3.936,2.83-8.811,3.117-13.169,1.578c-4.36-1.541-7.037-5.143-6.991-7.455c0.038-1.852,1.236-3.357,5.485-3.389
	C11.155,16.251,17.259,16.237,17.259,16.237z"/>
</svg>
